<?xml version="1.0" encoding="UTF-8"?> <svg xmlns="http://www.w3.org/2000/svg" width="300" height="283" viewBox="0 0 300 283" fill="none"><rect x="0.5" y="0.5" width="299" height="281.983" rx="23.5" fill="white"></rect><path d="M108.19 129.668C108.792 125.235 111.232 121.389 115.663 117.909L118.212 116.192L119.919 118.774C122.096 122.099 123.19 126.72 122.829 131.142C122.665 132.694 122.162 135.486 120.586 137.925C122.162 138.789 125.269 139.975 129.405 139.886H168.978H208.552L208.705 140.806C209.449 145.25 209.438 159.126 200.543 169.787C193.782 177.888 183.65 182 170.433 182C141.768 182 120.554 168.634 110.619 144.33C106.713 144.408 98.2995 144.352 93.9778 135.996C93.8684 135.808 93.6058 135.298 92.8509 133.713L92.4352 132.849L94.8641 131.209C97.4899 129.424 103.529 128.77 108.179 129.668H108.19ZM145.269 100H157.304V111.083H145.269V100ZM145.269 113.299H157.304V124.382H145.269V113.299ZM159.492 113.299H171.528V124.382H159.492V113.299ZM173.716 113.299H185.751V124.382H173.716V113.299ZM187.939 126.598H199.974V137.681H187.939V126.598ZM173.716 126.598H185.751V137.681H173.716V126.598ZM159.492 126.598H171.528V137.681H159.492V126.598ZM145.269 126.598H157.304V137.681H145.269V126.598ZM131.046 126.598H143.081V137.681H131.046V126.598Z" fill="#1D63ED"></path><rect x="0.5" y="0.5" width="299" height="281.983" rx="23.5" stroke="#E1E2E6"></rect></svg> 